# xmcd
#
# Track frame offsets:
#	150
#	11100
#	31372
#	42710
#	57522
#	70742
#	80695
#	93085
#	103897
#	116935
#	130672
#	149075
#	169462
#	178087
#	191630
#	207170
#	217077
#	230785
#	246540
#	264262
#
# Disc length: 3669 seconds
# Revision: 0
# Processed by: cddbd v1.5.2PL0 Copyright (c) Steve Scherf et al.
# Submitted via: dBpowerAMP V12.0
#
DISCID=420e5314
DTITLE=The Johnson Mountain Boys - Favorites
DYEAR=1987
DGENRE=Bluegrass
TTITLE0=Tomorrow I'll Be Gone
TTITLE1=Mother's Voice Is in the Wind
TTITLE2=Georgia Stomp
TTITLE3=Weary Hobo
TTITLE4=God's Not Dead
TTITLE5=Making up Stories
TTITLE6=Iron Curtain
TTITLE7=Let's Part the Best of Friends
TTITLE8=Five Speed
TTITLE9=Misery Loves Company
TTITLE10=The Waves on the Sea
TTITLE11=Weathered Gray Stone
TTITLE12=John Henry, the Steel Driving Man
TTITLE13=We'll Still Sing On
TTITLE14=When I Can Forget
TTITLE15=Sugarloaf Mountain Special
TTITLE16=Don't Throw Your Life Away
TTITLE17=I've Found a Hiding Place
TTITLE18=Wild and Wicked World
TTITLE19=Evening Sun Yodel
EXTD=
EXTT0=
EXTT1=
EXTT2=
EXTT3=
EXTT4=
EXTT5=
EXTT6=
EXTT7=
EXTT8=
EXTT9=
EXTT10=
EXTT11=
EXTT12=
EXTT13=
EXTT14=
EXTT15=
EXTT16=
EXTT17=
EXTT18=
EXTT19=
PLAYORDER=
